<svg height="440" viewBox="0 -18 440.96 440" width="440" xmlns="http://www.w3.org/2000/svg"><path d="m410.667969 405.207031h-394.667969c-8.832031 0-16-7.167969-16-16s7.167969-16 16-16h394.667969c8.832031 0 16 7.167969 16 16s-7.167969 16-16 16zm0 0"/><path d="m216.746094 405.207031c-4.09375 0-8.191406-1.558593-11.304688-4.695312-6.253906-6.25-6.253906-16.382813 0-22.632813l195.625-195.628906c5.097656-5.097656 7.894532-11.753906 7.894532-18.773438 0-7.144531-2.796876-13.886718-7.894532-18.984374l-104.746094-104.75c-6.398437-6.527344-13.84375-7.871094-18.988281-7.871094-7.125 0-13.757812 2.753906-18.644531 7.765625l-218.792969 218.796875c-6.550781 6.398437-7.894531 13.824218-7.894531 18.984375 0 7.125 2.753906 13.761719 7.765625 18.644531l81.835937 81.835938c6.25 6.25 6.25 16.382812 0 22.636718-6.253906 6.25-16.386718 6.25-22.636718 0l-81.707032-81.707031c-11.070312-10.839844-17.257812-25.578125-17.257812-41.410156 0-15.976563 6.1875-30.785157 17.40625-41.75l218.539062-218.515625c21.699219-22.273438 61.335938-22.230469 83.136719.128906l104.597657 104.617188c11.136718 11.136718 17.28125 25.898437 17.28125 41.601562 0 15.550781-6.144532 30.25-17.28125 41.386719l-195.625 195.625c-3.117188 3.136719-7.210938 4.695312-11.308594 4.695312zm0 0"/><path d="m333.269531 288.703125c-4.097656 0-8.191406-1.554687-11.308593-4.691406l-165.117188-165.121094c-6.25-6.25-6.25-16.382813 0-22.632813 6.25-6.253906 16.382812-6.253906 22.632812 0l165.121094 165.117188c6.25 6.25 6.25 16.386719 0 22.636719-3.15625 3.113281-7.253906 4.691406-11.328125 4.691406zm0 0"/></svg>